HIERARCHY
ROOT Hips
{
	OFFSET 64.9808 99.4403 336.71
	CHANNELS 6 Xposition Yposition Zposition Zrotation Xrotation Yrotation
	JOINT Spine
	{
		OFFSET 0 11.1289 0
		CHANNELS 3 Zrotation Xrotation Yrotation
		JOINT Spine1
		{
			OFFSET 0 11.1289 0
			CHANNELS 3 Zrotation Xrotation Yrotation
			JOINT Spine2
			{
				OFFSET 0 11.1289 0
				CHANNELS 3 Zrotation Xrotation Yrotation
				JOINT Spine3
				{
					OFFSET 0 11.1289 0
					CHANNELS 3 Zrotation Xrotation Yrotation
					JOINT LeftShoulder
					{
						OFFSET 1.5 7.35679 0
						CHANNELS 3 Zrotation Xrotation Yrotation
						JOINT LeftArm
						{
							OFFSET 14.3451 0 0
							CHANNELS 3 Zrotation Xrotation Yrotation
							JOINT LeftForeArm
							{
								OFFSET 31.2638 0 0
								CHANNELS 3 Zrotation Xrotation Yrotation
								JOINT LeftHand
								{
									OFFSET 23.949 0 0
									CHANNELS 3 Zrotation Xrotation Yrotation
									End Site
									{
										OFFSET 10 0 0
									}
								}
							}
						}
					}
					JOINT RightShoulder
					{
						OFFSET -1.49999 7.35679 0
						CHANNELS 3 Zrotation Xrotation Yrotation
						JOINT RightArm
						{
							OFFSET -14.3451 0 0
							CHANNELS 3 Zrotation Xrotation Yrotation
							JOINT RightForeArm
							{
								OFFSET -31.2638 0 0
								CHANNELS 3 Zrotation Xrotation Yrotation
								JOINT RightHand
								{
									OFFSET -23.949 0 0
									CHANNELS 3 Zrotation Xrotation Yrotation
									End Site
									{
										OFFSET -10 0 0
									}
								}
							}
						}
					}
					JOINT Neck
					{
						OFFSET 0 11.1289 0
						CHANNELS 3 Zrotation Xrotation Yrotation
						JOINT Head
						{
							OFFSET 0 9.03419 0
							CHANNELS 3 Zrotation Xrotation Yrotation
							End Site
							{
								OFFSET 0 15 0
							}
						}
					}
				}
			}
		}
	}
	JOINT LeftUpLeg
	{
		OFFSET 14.9264 0 0
		CHANNELS 3 Zrotation Xrotation Yrotation
		JOINT LeftLeg
		{
			OFFSET 0 -46.3156 0
			CHANNELS 3 Zrotation Xrotation Yrotation
			JOINT LeftFoot
			{
				OFFSET 0 -37.7849 0
				CHANNELS 3 Zrotation Xrotation Yrotation
				JOINT LeftToeBase
				{
					OFFSET 0 -7.83404 13.569
					CHANNELS 3 Zrotation Xrotation Yrotation
					End Site
					{
						OFFSET 0 0 5
					}
				}
			}
		}
	}
	JOINT RightUpLeg
	{
		OFFSET -14.9264 0 0
		CHANNELS 3 Zrotation Xrotation Yrotation
		JOINT RightLeg
		{
			OFFSET 0 -46.3156 0
			CHANNELS 3 Zrotation Xrotation Yrotation
			JOINT RightFoot
			{
				OFFSET 0 -37.7849 0
				CHANNELS 3 Zrotation Xrotation Yrotation
				JOINT RightToeBase
				{
					OFFSET 0 -7.83404 13.569
					CHANNELS 3 Zrotation Xrotation Yrotation
					End Site
					{
						OFFSET 0 0 5
					}
				}
			}
		}
	}
}
MOTION
Frames: 19
Frame Time: 0.005
64.6212 99.5287 336.042 177.428 -179.756 -88.9681 179.254 177.569 179.493 179.254 177.569 179.493 179.254 177.569 179.493 179.254 177.569 179.493 5.17393 -7.36489 -2.57068 2.33449 -14.3083 -39.617 39.1564 -11.5397 -83.8544 9.48754 -6.65029 -6.76174 1.51202 -7.33318 4.66421 1.36695 -23.2747 43.2967 156.509 -157.587 -146.26 160.746 -170.449 -176.632 5.48597 -35.3251 20.5372 178.968 176.138 178.227 0.696828 -13.7874 0.378999 177.632 161.262 -177.548 178.456 -172.948 -179.401 1.16565 -1.49968 1.15645 176.704 -163.575 176.503 0.985673 22.9967 1.04482 0.843178 -8.02427 -3.72155 1.15229 -0.469764 1.14891
64.625 99.532 336.046 177.434 -179.761 -88.9805 179.256 177.553 179.477 179.256 177.553 179.477 179.256 177.553 179.477 179.256 177.553 179.477 5.10138 -7.45187 -2.57118 2.37624 -14.278 -39.5264 39.1162 -11.4963 -84.3918 10.0919 -5.5803 -6.25131 1.51068 -7.48489 4.66582 1.40707 -23.1569 43.379 156.457 -157.682 -146.273 160.841 -170.032 -176.761 5.50701 -35.4445 20.6451 178.993 176.123 178.239 0.694068 -13.7543 0.474709 177.633 161.289 -177.548 178.58 -172.92 -179.424 1.16243 -1.34009 1.15637 176.713 -163.553 176.534 0.984266 23.0676 1.04537 0.806709 -8.08921 -3.73124 1.14853 -0.282163 1.14889
64.6307 99.5323 336.04 177.429 -179.775 -88.9661 179.254 177.555 179.476 179.254 177.555 179.476 179.254 177.555 179.476 179.254 177.555 179.476 5.06763 -7.43546 -2.57109 2.5204 -14.0727 -39.5594 39.3776 -11.418 -84.635 10.2994 -5.42066 -6.11883 1.56471 -7.36342 4.66453 1.32081 -23.2744 43.3524 156.521 -157.645 -146.253 160.541 -170.273 -176.687 5.50183 -35.4669 20.6155 178.984 176.114 178.23 0.668175 -13.7686 0.447957 177.633 161.285 -177.548 178.602 -172.982 -179.42 1.16821 -1.62677 1.15652 176.682 -163.568 176.512 0.985243 23.0184 1.04499 0.847396 -8.04156 -3.72514 1.152 -0.454975 1.14891
64.6239 99.5331 336.051 177.409 -179.764 -88.939 179.256 177.563 179.48 179.256 177.563 179.48 179.256 177.563 179.48 179.256 177.563 179.48 5.01446 -7.26905 -2.57012 2.70955 -13.9992 -39.6152 39.6812 -11.4711 -84.7455 9.58911 -6.01477 -6.53868 1.56942 -7.32529 4.66412 1.31422 -23.3086 43.2929 156.537 -157.62 -146.263 160.757 -170.141 -176.544 5.47943 -35.4479 20.5554 178.987 176.115 178.233 0.685993 -13.7592 0.404672 177.637 161.372 -177.549 178.514 -173.014 -179.431 1.16942 -1.68659 1.15656 176.699 -163.553 176.514 0.985502 23.0053 1.04489 0.823076 -8.0007 -3.72865 1.15215 -0.462402 1.14891
64.6247 99.534 336.047 177.406 -179.785 -88.9433 179.233 177.562 179.478 179.233 177.562 179.478 179.233 177.562 179.478 179.233 177.562 179.478 4.65966 -6.42222 -2.56556 3.60096 -14.5187 -39.6268 39.5393 -11.5541 -84.7699 9.43985 -6.42912 -6.93674 1.63156 -7.38811 4.66479 1.35864 -23.2317 43.3107 156.535 -157.645 -146.327 160.675 -170.106 -176.6 5.67801 -35.4577 20.6478 178.97 176.099 178.217 0.663554 -13.7924 0.416866 177.634 161.301 -177.548 178.471 -173.004 -179.422 1.16839 -1.6355 1.15653 176.677 -163.531 176.486 0.984463 23.0577 1.04529 0.750227 -8.02966 -3.73868 1.14987 -0.348806 1.1489
64.6282 99.5329 336.046 177.405 -179.778 -88.9324 179.235 177.584 179.524 179.235 177.584 179.524 179.235 177.584 179.524 179.235 177.584 179.524 4.68712 -6.75297 -2.56728 3.26327 -14.168 -40.0761 39.9861 -11.1209 -84.9937 10.3131 -5.61031 -6.41149 1.70025 -7.19992 4.66282 1.14831 -23.3305 43.0752 156.611 -157.537 -146.362 160.78 -170.146 -176.495 5.58144 -35.2917 20.4015 178.966 176.115 178.217 0.668474 -13.8041 0.395223 177.633 161.289 -177.548 178.54 -173.032 -179.395 1.16642 -1.5378 1.15647 176.68 -163.556 176.505 0.98537 23.012 1.04494 0.876432 -8.05237 -3.69935 1.15148 -0.429315 1.14891
64.6259 99.5325 336.048 177.395 -179.771 -88.9401 179.24 177.584 179.522 179.24 177.584 179.522 179.24 177.584 179.522 179.24 177.584 179.522 4.72974 -6.79203 -2.56748 3.19311 -14.0303 -40.0852 39.7769 -11.0189 -85.4316 7.11846 -8.29139 -8.4066 1.67246 -7.23562 4.66319 1.22596 -23.3317 43.0877 156.599 -157.648 -146.301 160.451 -170.3 -176.596 5.58022 -35.3187 20.4306 178.967 176.101 178.217 0.685409 -13.824 0.42463 177.632 161.264 -177.548 178.5 -173.019 -179.442 1.17027 -1.72847 1.15658 176.692 -163.525 176.509 0.984347 23.0636 1.04534 0.740054 -8.06153 -3.74683 1.14875 -0.293194 1.14889
64.6281 99.5278 336.045 177.416 -179.776 -88.9217 179.242 177.568 179.508 179.242 177.568 179.508 179.242 177.568 179.508 179.242 177.568 179.508 4.7622 -6.77182 -2.56738 3.06453 -14.0762 -40.0676 39.7048 -10.8668 -85.9701 10.7975 -4.16879 -5.52744 1.67345 -7.25738 4.66342 1.24399 -23.345 43.1302 156.591 -157.635 -146.3 160.823 -169.995 -176.727 5.61145 -35.3705 20.4763 178.97 176.107 178.22 0.66536 -13.7671 0.368789 177.635 161.335 -177.549 178.489 -172.978 -179.396 1.16846 -1.6387 1.15653 176.675 -163.552 176.489 0.984762 23.0426 1.04518 0.835593 -8.03054 -3.71939 1.15195 -0.452773 1.14891
64.6337 99.5261 336.043 177.446 -179.764 -88.9346 179.248 177.554 179.513 179.248 177.554 179.513 179.248 177.554 179.513 179.248 177.554 179.513 4.67024 -6.60448 -2.5665 3.37008 -13.9829 -40.0736 39.751 -10.9557 -86.0632 7.98726 -7.13994 -7.81001 1.64049 -7.26063 4.66345 1.25453 -23.3483 43.1239 156.628 -157.57 -146.332 160.684 -170.123 -176.696 5.60504 -35.4041 20.5111 178.967 176.119 178.221 0.678419 -13.7429 0.417752 177.634 161.313 -177.548 178.593 -172.96 -179.445 1.16817 -1.62453 1.15652 176.696 -163.59 176.51 0.9852 23.0205 1.04501 0.816889 -8.04104 -3.73248 1.15073 -0.39169 1.1489
64.6308 99.5296 336.045 177.412 -179.777 -88.9293 179.244 177.563 179.503 179.244 177.563 179.503 179.244 177.563 179.503 179.244 177.563 179.503 4.65819 -6.62677 -2.56661 3.42101 -13.8128 -40.0221 39.3128 -10.9176 -86.5156 7.34531 -7.49736 -8.20555 1.67105 -7.2448 4.66329 1.29071 -23.3845 43.1782 156.625 -157.621 -146.319 160.457 -170.331 -176.697 5.61742 -35.4217 20.5239 178.967 176.107 178.218 0.662419 -13.7646 0.413394 177.635 161.34 -177.549 178.624 -172.968 -179.415 1.1656 -1.49716 1.15645 176.678 -163.549 176.513 0.985005 23.0304 1.04508 0.837061 -7.9982 -3.74041 1.15614 -0.661743 1.14895
64.6277 99.5287 336.044 177.386 -179.785 -88.9208 179.241 177.572 179.5 179.241 177.572 179.5 179.241 177.572 179.5 179.241 177.572 179.5 4.65276 -6.5436 -2.56618 3.45756 -13.7683 -40.0422 39.1465 -10.7894 -86.863 7.00204 -7.55432 -8.3532 1.69444 -7.22299 4.66306 1.2533 -23.3471 43.1727 156.626 -157.573 -146.383 160.616 -170.228 -176.601 5.63916 -35.4194 20.5183 178.972 176.107 178.221 0.660458 -13.8053 0.390112 177.635 161.325 -177.549 178.486 -173.031 -179.441 1.1701 -1.72011 1.15658 176.661 -163.496 176.509 0.983726 23.0949 1.04558 0.940895 -8.10178 -3.72078 1.14973 -0.341721 1.1489
64.6279 99.5269 336.048 177.397 -179.783 -88.9156 179.236 177.568 179.508 179.236 177.568 179.508 179.236 177.568 179.508 179.236 177.568 179.508 4.67611 -6.32864 -2.5651 3.67126 -13.5986 -40.0741 39.3956 -11.0088 -86.7984 7.10496 -7.42032 -8.52585 1.71833 -7.20999 4.66293 1.22877 -23.3471 43.125 156.626 -157.549 -146.416 160.704 -170.253 -176.577 5.68008 -35.4027 20.5078 178.959 176.097 178.205 0.658967 -13.7746 0.391753 177.637 161.371 -177.549 178.582 -173.014 -179.441 1.16866 -1.64864 1.15653 176.671 -163.515 176.506 0.984024 23.0798 1.04547 0.829427 -8.03965 -3.71664 1.15113 -0.411887 1.1489
64.6278 99.5259 336.043 177.398 -179.777 -88.9219 179.244 177.565 179.504 179.244 177.565 179.504 179.244 177.565 179.504 179.244 177.565 179.504 4.64413 -6.29621 -2.56493 3.68206 -13.5377 -40.0222 39.7558 -10.8683 -87.0823 5.53248 -9.37989 -9.37558 1.68081 -7.24349 4.66327 1.23355 -23.2503 43.1424 156.55 -157.485 -146.479 160.757 -170.132 -176.617 5.65797 -35.415 20.5068 178.961 176.093 178.21 0.653295 -13.8045 0.435046 177.633 161.295 -177.548 178.735 -172.971 -179.421 1.166 -1.51713 1.15646 176.68 -163.527 176.505 0.984651 23.0482 1.04522 0.774078 -8.0176 -3.73293 1.15459 -0.584357 1.14893
64.6259 99.5226 336.046 177.406 -179.768 -88.9053 179.246 177.559 179.501 179.246 177.559 179.501 179.246 177.559 179.501 179.246 177.559 179.501 4.66862 -6.29881 -2.56495 3.88412 -13.1684 -40.0424 39.7422 -11.0202 -87.1227 6.24551 -8.88921 -9.2782 1.66627 -7.25167 4.66336 1.26461 -23.2339 43.1379 156.487 -157.476 -146.523 160.892 -170.011 -176.667 5.68067 -35.4229 20.5124 178.958 176.125 178.217 0.68528 -13.8342 0.440758 177.63 161.233 -177.547 178.48 -172.969 -179.488 1.16897 -1.664 1.15654 176.681 -163.522 176.498 0.983872 23.0875 1.04553 0.862931 -8.06174 -3.69995 1.15218 -0.463942 1.14891
64.6201 99.5276 336.046 177.384 -179.762 -88.8998 179.252 177.564 179.501 179.252 177.564 179.501 179.252 177.564 179.501 179.252 177.564 179.501 4.65732 -6.2442 -2.56468 3.88743 -13.1112 -40.061 39.5927 -10.9374 -87.4537 6.80458 -8.21286 -8.78429 1.66617 -7.23402 4.66317 1.26122 -23.2384 43.1357 156.455 -157.483 -146.534 160.934 -170.177 -176.563 5.64686 -35.4449 20.4892 178.968 176.116 178.221 0.674055 -13.8213 0.410926 177.634 161.303 -177.548 178.638 -172.966 -179.445 1.16738 -1.58559 1.1565 176.692 -163.492 176.499 0.983564 23.103 1.04565 0.789495 -8.06402 -3.78772 1.15046 -0.37839 1.1489
64.6274 99.5297 336.039 177.39 -179.793 -88.9281 179.24 177.56 179.506 179.24 177.56 179.506 179.24 177.56 179.506 179.24 177.56 179.506 4.67126 -6.22334 -2.56458 3.85787 -13.1171 -40.0685 39.4732 -10.7067 -87.8187 5.9173 -9.13862 -9.47262 1.70882 -7.2554 4.6634 1.27114 -23.2756 43.1352 156.606 -157.462 -146.485 160.75 -170.401 -176.327 5.67364 -35.4692 20.4946 178.962 176.115 178.216 0.642789 -13.8054 0.412689 177.634 161.312 -177.548 178.628 -173.01 -179.429 1.16811 -1.62144 1.15652 176.656 -163.496 176.528 0.983861 23.0881 1.04553 0.907144 -8.05104 -3.73606 1.15437 -0.573199 1.14893
64.6156 99.5241 336.041 177.38 -179.79 -88.9042 179.241 177.559 179.498 179.241 177.559 179.498 179.241 177.559 179.498 179.241 177.559 179.498 4.67528 -6.17105 -2.56432 3.92784 -13.0408 -40.1354 38.957 -10.5615 -88.1846 7.82467 -7.2248 -8.29587 1.70597 -7.25394 4.66338 1.25517 -23.2209 43.1423 156.597 -157.362 -146.544 160.672 -170.339 -176.394 5.69936 -35.4552 20.4939 178.962 176.128 178.22 0.641574 -13.8487 0.405249 177.632 161.264 -177.548 178.599 -172.929 -179.433 1.16196 -1.31694 1.15636 176.654 -163.489 176.505 0.983856 23.0883 1.04553 0.906427 -8.05196 -3.73028 1.15555 -0.632211 1.14894
64.6106 99.5275 336.045 177.369 -179.783 -88.8913 179.244 177.561 179.494 179.244 177.561 179.494 179.244 177.561 179.494 179.244 177.561 179.494 4.64426 -6.16096 -2.56427 4.04571 -12.7974 -40.1542 39.1762 -10.6166 -88.1807 7.19608 -7.86898 -8.79898 1.71262 -7.21813 4.66301 1.29077 -23.2888 43.1687 156.634 -157.387 -146.546 160.826 -170.352 -176.307 5.6974 -35.4632 20.4991 178.968 176.113 178.221 0.649734 -13.8246 0.375591 177.636 161.364 -177.549 178.548 -173.005 -179.423 1.16505 -1.46985 1.15643 176.664 -163.499 176.508 0.984948 23.0333 1.04511 0.869426 -8.03384 -3.75362 1.15513 -0.611102 1.14894
64.6117 99.5276 336.038 177.365 -179.795 -88.9212 179.242 177.559 179.502 179.242 177.559 179.502 179.242 177.559 179.502 179.242 177.559 179.502 4.63212 -6.16438 -2.56429 4.08852 -12.6721 -40.1602 39.0067 -10.545 -88.4715 6.89663 -7.95557 -8.91047 1.69975 -7.23212 4.66315 1.31495 -23.3052 43.1499 156.687 -157.413 -146.486 160.078 -170.964 -176.189 5.68081 -35.4752 20.4663 178.966 176.118 178.22 0.63865 -13.8252 0.423905 177.636 161.355 -177.549 178.602 -173.018 -179.434 1.1665 -1.54172 1.15647 176.653 -163.446 176.505 0.982799 23.1416 1.04595 0.811475 -8.09353 -3.74818 1.15086 -0.398318 1.1489
